<?xml version="1.0" encoding="utf-8" standalone="no"?>
<!DOCTYPE svg PUBLIC "-//W3C//DTD SVG 1.1//EN"
  "http://www.w3.org/Graphics/SVG/1.1/DTD/svg11.dtd">
<svg xmlns:xlink="http://www.w3.org/1999/xlink" width="691.2pt" height="280.8pt" viewBox="0 0 691.2 280.8" xmlns="http://www.w3.org/2000/svg" version="1.1">
<style>
  svg {
    --ink-primary: #0b0b0b;
    --ink-secondary: #52514e;
    --ink-muted: #898781;
    --grid: #e1e0d9;
    --baseline: #c3c2b7;
    --series-1: #2a78d6;
    --series-2: #eb6834;
    --negative: #e34948;
    --surface: #ffffff;
  }
  @media (prefers-color-scheme: dark) {
    svg {
      --ink-primary: #ffffff;
      --ink-secondary: #c3c2b7;
      --ink-muted: #898781;
      --grid: #2c2c2a;
      --baseline: #383835;
      --series-1: #3987e5;
      --series-2: #d95926;
      --negative: #e66767;
      --surface: #0d1117;
    }
  }
</style>

 <metadata>
  <rdf:RDF xmlns:dc="http://purl.org/dc/elements/1.1/" xmlns:cc="http://creativecommons.org/ns#" xmlns:rdf="http://www.w3.org/1999/02/22-rdf-syntax-ns#">
   <cc:Work>
    <dc:type rdf:resource="http://purl.org/dc/dcmitype/StillImage"/>
    <dc:format>image/svg+xml</dc:format>
   </cc:Work>
  </rdf:RDF>
 </metadata>
 <defs>
  <style type="text/css">*{stroke-linejoin: round; stroke-linecap: butt}</style>
 </defs>
 <g id="figure_1">
  <g id="axes_1">
   <g id="patch_1">
    <path d="M 34.56 227.448 
L 172.8 227.448 
L 172.8 64.584 
L 34.56 64.584 
L 34.56 227.448 
z
" style="fill: none"/>
   </g>
   <g id="line2d_1">
    <path d="M 34.56 213.876 
L 172.8 213.876 
" clip-path="url(#clip-1)" style="fill: none; stroke: var(--grid, #e1e0d9); stroke-width: 0.72; stroke-linecap: square"/>
   </g>
   <g id="line2d_2">
    <path d="M 34.56 78.156 
L 172.8 78.156 
" clip-path="url(#clip-1)" style="fill: none; stroke: var(--grid, #e1e0d9); stroke-width: 0.72; stroke-linecap: square"/>
   </g>
   <g id="line2d_3">
    <path d="M 34.56 146.016 
L 172.8 146.016 
" clip-path="url(#clip-1)" style="fill: none; stroke: var(--baseline, #c3c2b7); stroke-width: 0.72; stroke-linecap: square"/>
   </g>
   <g id="matplotlib.axis_1"/>
   <g id="matplotlib.axis_2"/>
   <g id="patch_2">
    <path d="M 54.72 195.4407 
L 66.24 195.4407 
Q 69.12 195.4407 69.12 192.5607 
L 69.12 148.896 
Q 69.12 146.016 66.24 146.016 
L 54.72 146.016 
Q 51.84 146.016 51.84 148.896 
L 51.84 192.5607 
Q 51.84 195.4407 54.72 195.4407 
z
" clip-path="url(#clip-1)" style="fill: var(--negative, #e34948)"/>
   </g>
   <g id="patch_3">
    <path d="M 51.84 151.776 
L 69.12 151.776 
L 69.12 146.016 
L 51.84 146.016 
z
" clip-path="url(#clip-1)" style="fill: var(--negative, #e34948)"/>
   </g>
   <g id="patch_4">
    <path d="M 97.92 146.016 
L 109.44 146.016 
Q 112.32 146.016 112.32 143.136 
L 112.32 81.46578 
Q 112.32 78.58578 109.44 78.58578 
L 97.92 78.58578 
Q 95.04 78.58578 95.04 81.46578 
L 95.04 143.136 
Q 95.04 146.016 97.92 146.016 
z
" clip-path="url(#clip-1)" style="fill: var(--series-1, #2a78d6)"/>
   </g>
   <g id="patch_5">
    <path d="M 95.04 146.016 
L 112.32 146.016 
L 112.32 140.256 
L 95.04 140.256 
z
" clip-path="url(#clip-1)" style="fill: var(--series-1, #2a78d6)"/>
   </g>
   <g id="patch_6">
    <path d="M 141.12 146.016 
L 152.64 146.016 
Q 155.52 146.016 155.52 143.136 
L 155.52 98.001 
Q 155.52 95.121 152.64 95.121 
L 141.12 95.121 
Q 138.24 95.121 138.24 98.001 
L 138.24 143.136 
Q 138.24 146.016 141.12 146.016 
z
" clip-path="url(#clip-1)" style="fill: var(--series-1, #2a78d6)"/>
   </g>
   <g id="patch_7">
    <path d="M 138.24 146.016 
L 155.52 146.016 
L 155.52 140.256 
L 138.24 140.256 
z
" clip-path="url(#clip-1)" style="fill: var(--series-1, #2a78d6)"/>
   </g>
   <g id="text_1">
    <text style="font-size: 9px; font-family: system-ui, -apple-system, 'Segoe UI', sans-serif; text-anchor: middle; fill: var(--ink-secondary, #52514e)" x="60.48" y="205.5207" transform="rotate(-0 60.48 205.5207)">−22</text>
   </g>
   <g id="text_2">
    <text style="font-size: 9px; font-family: system-ui, -apple-system, 'Segoe UI', sans-serif; text-anchor: middle; fill: var(--ink-secondary, #52514e)" x="103.68" y="74.98578" transform="rotate(-0 103.68 74.98578)">+30</text>
   </g>
   <g id="text_3">
    <text style="font-size: 9px; font-family: system-ui, -apple-system, 'Segoe UI', sans-serif; text-anchor: middle; fill: var(--ink-secondary, #52514e)" x="146.88" y="91.521" transform="rotate(-0 146.88 91.521)">+23</text>
   </g>
   <g id="text_4">
    <text style="font-size: 8.5px; font-family: system-ui, -apple-system, 'Segoe UI', sans-serif; text-anchor: middle; fill: var(--ink-muted, #898781)" x="60.48" y="237.888" transform="rotate(-0 60.48 237.888)">2022</text>
   </g>
   <g id="text_5">
    <text style="font-size: 8.5px; font-family: system-ui, -apple-system, 'Segoe UI', sans-serif; text-anchor: middle; fill: var(--ink-muted, #898781)" x="103.68" y="237.888" transform="rotate(-0 103.68 237.888)">2023</text>
   </g>
   <g id="text_6">
    <text style="font-size: 8.5px; font-family: system-ui, -apple-system, 'Segoe UI', sans-serif; text-anchor: middle; fill: var(--ink-muted, #898781)" x="146.88" y="237.888" transform="rotate(-0 146.88 237.888)">2024</text>
   </g>
   <g id="text_7">
    <text style="font-size: 8.5px; font-family: system-ui, -apple-system, 'Segoe UI', sans-serif; text-anchor: end; fill: var(--ink-muted, #898781)" x="29.52" y="216.936" transform="rotate(-0 29.52 216.936)">−30</text>
   </g>
   <g id="text_8">
    <text style="font-size: 8.5px; font-family: system-ui, -apple-system, 'Segoe UI', sans-serif; text-anchor: end; fill: var(--ink-muted, #898781)" x="29.52" y="149.076" transform="rotate(-0 29.52 149.076)">0</text>
   </g>
   <g id="text_9">
    <text style="font-size: 8.5px; font-family: system-ui, -apple-system, 'Segoe UI', sans-serif; text-anchor: end; fill: var(--ink-muted, #898781)" x="29.52" y="81.216" transform="rotate(-0 29.52 81.216)">+30</text>
   </g>
  </g>
  <g id="axes_2">
   <g id="patch_8">
    <path d="M 207.36 227.448 
L 359.424 227.448 
L 359.424 64.584 
L 207.36 64.584 
L 207.36 227.448 
z
" style="fill: none"/>
   </g>
   <g id="line2d_4">
    <path d="M 207.36 134.706 
L 359.424 134.706 
" clip-path="url(#clip-2)" style="fill: none; stroke: var(--grid, #e1e0d9); stroke-width: 0.72; stroke-linecap: square"/>
   </g>
   <g id="line2d_5">
    <path d="M 207.36 78.156 
L 359.424 78.156 
" clip-path="url(#clip-2)" style="fill: none; stroke: var(--grid, #e1e0d9); stroke-width: 0.72; stroke-linecap: square"/>
   </g>
   <g id="line2d_6">
    <path d="M 207.36 191.256 
L 359.424 191.256 
" clip-path="url(#clip-2)" style="fill: none; stroke: var(--baseline, #c3c2b7); stroke-width: 0.72; stroke-linecap: square"/>
   </g>
   <g id="matplotlib.axis_3"/>
   <g id="matplotlib.axis_4"/>
   <g id="line2d_7">
    <path d="M 217.0368 191.256 
L 244.6848 198.55095 
L 272.3328 191.01763 
L 299.9808 177.72304 
L 327.6288 168.681446 
" clip-path="url(#clip-2)" style="fill: none; stroke: var(--series-2, #eb6834); stroke-width: 1.44; stroke-linecap: round"/>
   </g>
   <g id="line2d_8">
    <path d="M 217.0368 191.256 
L 244.6848 214.61115 
L 272.3328 191.367234 
L 299.9808 140.11553 
L 327.6288 87.312218 
" clip-path="url(#clip-2)" style="fill: none; stroke: var(--series-1, #2a78d6); stroke-width: 1.44; stroke-linecap: round"/>
   </g>
   <g id="line2d_9">
    <defs>
     <path id="marker-1" d="M 0 2.88 
C 0.763785 2.88 1.49639 2.576545 2.036468 2.036468 
C 2.576545 1.49639 2.88 0.763785 2.88 0 
C 2.88 -0.763785 2.576545 -1.49639 2.036468 -2.036468 
C 1.49639 -2.576545 0.763785 -2.88 0 -2.88 
C -0.763785 -2.88 -1.49639 -2.576545 -2.036468 -2.036468 
C -2.576545 -1.49639 -2.88 -0.763785 -2.88 0 
C -2.88 0.763785 -2.576545 1.49639 -2.036468 2.036468 
C -1.49639 2.576545 -0.763785 2.88 0 2.88 
z
" style="stroke: var(--surface, #ffffff); stroke-width: 1.44"/>
    </defs>
    <g clip-path="url(#clip-2)">
     <use xlink:href="#marker-1" x="327.6288" y="168.681446" style="fill: var(--series-2, #eb6834); stroke: var(--surface, #ffffff); stroke-width: 1.44"/>
    </g>
   </g>
   <g id="text_10">
    <text style="font-size: 9px; font-family: system-ui, -apple-system, 'Segoe UI', sans-serif; text-anchor: start; fill: var(--ink-secondary, #52514e)" x="334.1088" y="171.921446" transform="rotate(-0 334.1088 171.921446)">+20%</text>
   </g>
   <g id="line2d_10">
    <defs>
     <path id="marker-2" d="M 0 2.88 
C 0.763785 2.88 1.49639 2.576545 2.036468 2.036468 
C 2.576545 1.49639 2.88 0.763785 2.88 0 
C 2.88 -0.763785 2.576545 -1.49639 2.036468 -2.036468 
C 1.49639 -2.576545 0.763785 -2.88 0 -2.88 
C -0.763785 -2.88 -1.49639 -2.576545 -2.036468 -2.036468 
C -2.576545 -1.49639 -2.88 -0.763785 -2.88 0 
C -2.88 0.763785 -2.576545 1.49639 -2.036468 2.036468 
C -1.49639 2.576545 -0.763785 2.88 0 2.88 
z
" style="stroke: var(--surface, #ffffff); stroke-width: 1.44"/>
    </defs>
    <g clip-path="url(#clip-2)">
     <use xlink:href="#marker-2" x="327.6288" y="87.312218" style="fill: var(--series-1, #2a78d6); stroke: var(--surface, #ffffff); stroke-width: 1.44"/>
    </g>
   </g>
   <g id="text_11">
    <text style="font-size: 9px; font-family: system-ui, -apple-system, 'Segoe UI', sans-serif; text-anchor: start; fill: var(--ink-secondary, #52514e)" x="334.1088" y="90.552218" transform="rotate(-0 334.1088 90.552218)">+92%</text>
   </g>
   <g id="text_12">
    <text style="font-size: 9px; font-family: system-ui, -apple-system, 'Segoe UI', sans-serif; text-anchor: start; fill: var(--ink-secondary, #52514e)" x="225.60768" y="75.9672" transform="rotate(-0 225.60768 75.9672)">model</text>
   </g>
   <g id="text_13">
    <text style="font-size: 9px; font-family: system-ui, -apple-system, 'Segoe UI', sans-serif; text-anchor: start; fill: var(--ink-secondary, #52514e)" x="225.60768" y="93.88224" transform="rotate(-0 225.60768 93.88224)">benchmark</text>
   </g>
   <g id="text_14">
    <text style="font-size: 8.5px; font-family: system-ui, -apple-system, 'Segoe UI', sans-serif; text-anchor: middle; fill: var(--ink-muted, #898781)" x="217.0368" y="237.888" transform="rotate(-0 217.0368 237.888)">start</text>
   </g>
   <g id="text_15">
    <text style="font-size: 8.5px; font-family: system-ui, -apple-system, 'Segoe UI', sans-serif; text-anchor: middle; fill: var(--ink-muted, #898781)" x="244.6848" y="237.888" transform="rotate(-0 244.6848 237.888)">2022</text>
   </g>
   <g id="text_16">
    <text style="font-size: 8.5px; font-family: system-ui, -apple-system, 'Segoe UI', sans-serif; text-anchor: middle; fill: var(--ink-muted, #898781)" x="272.3328" y="237.888" transform="rotate(-0 272.3328 237.888)">2023</text>
   </g>
   <g id="text_17">
    <text style="font-size: 8.5px; font-family: system-ui, -apple-system, 'Segoe UI', sans-serif; text-anchor: middle; fill: var(--ink-muted, #898781)" x="299.9808" y="237.888" transform="rotate(-0 299.9808 237.888)">2024</text>
   </g>
   <g id="text_18">
    <text style="font-size: 8.5px; font-family: system-ui, -apple-system, 'Segoe UI', sans-serif; text-anchor: middle; fill: var(--ink-muted, #898781)" x="327.6288" y="237.888" transform="rotate(-0 327.6288 237.888)">2025</text>
   </g>
   <g id="text_19">
    <text style="font-size: 8.5px; font-family: system-ui, -apple-system, 'Segoe UI', sans-serif; text-anchor: end; fill: var(--ink-muted, #898781)" x="202.32" y="194.316" transform="rotate(-0 202.32 194.316)">0</text>
   </g>
   <g id="text_20">
    <text style="font-size: 8.5px; font-family: system-ui, -apple-system, 'Segoe UI', sans-serif; text-anchor: end; fill: var(--ink-muted, #898781)" x="202.32" y="137.766" transform="rotate(-0 202.32 137.766)">+50%</text>
   </g>
   <g id="text_21">
    <text style="font-size: 8.5px; font-family: system-ui, -apple-system, 'Segoe UI', sans-serif; text-anchor: end; fill: var(--ink-muted, #898781)" x="202.32" y="81.216" transform="rotate(-0 202.32 81.216)">+100%</text>
   </g>
   <g id="line2d_11">
    <path d="M 211.92192 72.7272 
L 221.80608 72.7272 
" clip-path="url(#clip-2)" style="fill: none; stroke: var(--series-1, #2a78d6); stroke-width: 1.44; stroke-linecap: round"/>
   </g>
   <g id="line2d_12">
    <path d="M 211.92192 90.64224 
L 221.80608 90.64224 
" clip-path="url(#clip-2)" style="fill: none; stroke: var(--series-2, #eb6834); stroke-width: 1.44; stroke-linecap: round"/>
   </g>
  </g>
  <g id="axes_3">
   <g id="patch_9">
    <path d="M 483.84 227.448 
L 635.904 227.448 
L 635.904 64.584 
L 483.84 64.584 
L 483.84 227.448 
z
" style="fill: none"/>
   </g>
   <g id="line2d_13">
    <path d="M 509.184 227.448 
L 509.184 64.584 
" clip-path="url(#clip-3)" style="fill: none; stroke: var(--grid, #e1e0d9); stroke-width: 0.72; stroke-linecap: square"/>
   </g>
   <g id="line2d_14">
    <path d="M 534.528 227.448 
L 534.528 64.584 
" clip-path="url(#clip-3)" style="fill: none; stroke: var(--grid, #e1e0d9); stroke-width: 0.72; stroke-linecap: square"/>
   </g>
   <g id="line2d_15">
    <path d="M 585.216 227.448 
L 585.216 64.584 
" clip-path="url(#clip-3)" style="fill: none; stroke: var(--grid, #e1e0d9); stroke-width: 0.72; stroke-linecap: square"/>
   </g>
   <g id="line2d_16">
    <path d="M 559.872 227.448 
L 559.872 64.584 
" clip-path="url(#clip-3)" style="fill: none; stroke: var(--baseline, #c3c2b7); stroke-width: 0.72; stroke-linecap: square"/>
   </g>
   <g id="matplotlib.axis_5"/>
   <g id="matplotlib.axis_6"/>
   <g id="line2d_17">
    <path d="M 540.864 90.494182 
L 576.09216 90.494182 
" clip-path="url(#clip-3)" style="fill: none; stroke: var(--series-1, #2a78d6); stroke-width: 1.44; stroke-linecap: round"/>
   </g>
   <g id="line2d_18">
    <path d="M 510.4512 127.508727 
L 589.0176 127.508727 
" clip-path="url(#clip-3)" style="fill: none; stroke: var(--series-1, #2a78d6); stroke-width: 1.44; stroke-linecap: round"/>
   </g>
   <g id="line2d_19">
    <path d="M 520.84224 164.523273 
L 575.33184 164.523273 
" clip-path="url(#clip-3)" style="fill: none; stroke: var(--series-1, #2a78d6); stroke-width: 1.44; stroke-linecap: round"/>
   </g>
   <g id="line2d_20">
    <path d="M 498.79296 201.537818 
L 584.70912 201.537818 
" clip-path="url(#clip-3)" style="fill: none; stroke: var(--series-1, #2a78d6); stroke-width: 1.44; stroke-linecap: round"/>
   </g>
   <g id="line2d_21">
    <g clip-path="url(#clip-3)">
     <use xlink:href="#marker-2" x="558.680832" y="90.494182" style="fill: var(--series-1, #2a78d6); stroke: var(--surface, #ffffff); stroke-width: 1.44"/>
    </g>
   </g>
   <g id="text_22">
    <text style="font-size: 9px; font-family: system-ui, -apple-system, 'Segoe UI', sans-serif; text-anchor: start; fill: var(--ink-secondary, #52514e)" x="601.6896" y="93.734182" transform="rotate(-0 601.6896 93.734182)">−0.0005</text>
   </g>
   <g id="text_23">
    <text style="font-size: 9px; font-family: system-ui, -apple-system, 'Segoe UI', sans-serif; text-anchor: end; fill: var(--ink-secondary, #52514e)" x="478.8" y="93.734182" transform="rotate(-0 478.8 93.734182)">threshold 0.8, shipped</text>
   </g>
   <g id="line2d_22">
    <g clip-path="url(#clip-3)">
     <use xlink:href="#marker-2" x="550.215936" y="127.508727" style="fill: var(--series-1, #2a78d6); stroke: var(--surface, #ffffff); stroke-width: 1.44"/>
    </g>
   </g>
   <g id="text_24">
    <text style="font-size: 9px; font-family: system-ui, -apple-system, 'Segoe UI', sans-serif; text-anchor: start; fill: var(--ink-secondary, #52514e)" x="601.6896" y="130.748727" transform="rotate(-0 601.6896 130.748727)">−0.0038</text>
   </g>
   <g id="text_25">
    <text style="font-size: 9px; font-family: system-ui, -apple-system, 'Segoe UI', sans-serif; text-anchor: end; fill: var(--ink-secondary, #52514e)" x="478.8" y="130.748727" transform="rotate(-0 478.8 130.748727)">top-K 20, static</text>
   </g>
   <g id="line2d_23">
    <g clip-path="url(#clip-3)">
     <use xlink:href="#marker-2" x="547.858944" y="164.523273" style="fill: var(--series-1, #2a78d6); stroke: var(--surface, #ffffff); stroke-width: 1.44"/>
    </g>
   </g>
   <g id="text_26">
    <text style="font-size: 9px; font-family: system-ui, -apple-system, 'Segoe UI', sans-serif; text-anchor: start; fill: var(--ink-secondary, #52514e)" x="601.6896" y="167.763273" transform="rotate(-0 601.6896 167.763273)">−0.0047</text>
   </g>
   <g id="text_27">
    <text style="font-size: 9px; font-family: system-ui, -apple-system, 'Segoe UI', sans-serif; text-anchor: end; fill: var(--ink-secondary, #52514e)" x="478.8" y="167.763273" transform="rotate(-0 478.8 167.763273)">sector relation only</text>
   </g>
   <g id="line2d_24">
    <g clip-path="url(#clip-3)">
     <use xlink:href="#marker-2" x="540.635904" y="201.537818" style="fill: var(--series-1, #2a78d6); stroke: var(--surface, #ffffff); stroke-width: 1.44"/>
    </g>
   </g>
   <g id="text_28">
    <text style="font-size: 9px; font-family: system-ui, -apple-system, 'Segoe UI', sans-serif; text-anchor: start; fill: var(--ink-secondary, #52514e)" x="601.6896" y="204.777818" transform="rotate(-0 601.6896 204.777818)">−0.0076</text>
   </g>
   <g id="text_29">
    <text style="font-size: 9px; font-family: system-ui, -apple-system, 'Segoe UI', sans-serif; text-anchor: end; fill: var(--ink-secondary, #52514e)" x="478.8" y="204.777818" transform="rotate(-0 478.8 204.777818)">threshold 0.5</text>
   </g>
   <g id="text_30">
    <text style="font-size: 8.5px; font-family: system-ui, -apple-system, 'Segoe UI', sans-serif; text-anchor: middle; fill: var(--ink-muted, #898781)" x="509.184" y="237.888" transform="rotate(-0 509.184 237.888)">−0.02</text>
   </g>
   <g id="text_31">
    <text style="font-size: 8.5px; font-family: system-ui, -apple-system, 'Segoe UI', sans-serif; text-anchor: middle; fill: var(--ink-muted, #898781)" x="534.528" y="237.888" transform="rotate(-0 534.528 237.888)">−0.01</text>
   </g>
   <g id="text_32">
    <text style="font-size: 8.5px; font-family: system-ui, -apple-system, 'Segoe UI', sans-serif; text-anchor: middle; fill: var(--ink-muted, #898781)" x="559.872" y="237.888" transform="rotate(-0 559.872 237.888)">0</text>
   </g>
   <g id="text_33">
    <text style="font-size: 8.5px; font-family: system-ui, -apple-system, 'Segoe UI', sans-serif; text-anchor: middle; fill: var(--ink-muted, #898781)" x="585.216" y="237.888" transform="rotate(-0 585.216 237.888)">+0.01</text>
   </g>
  </g>
  <g id="text_34">
   <text style="font-weight: 700; font-size: 10.5px; font-family: system-ui, -apple-system, 'Segoe UI', sans-serif; text-anchor: start; fill: var(--ink-primary, #0b0b0b)" x="34.56" y="23.868" transform="rotate(-0 34.56 23.868)">Point-in-time replays against the benchmark</text>
  </g>
  <g id="text_35">
   <text style="font-size: 9px; font-family: system-ui, -apple-system, 'Segoe UI', sans-serif; text-anchor: start; fill: var(--ink-secondary, #52514e)" x="34.56" y="38.7504" transform="rotate(-0 34.56 38.7504)">excess return by test year, 110-name universe (left)</text>
  </g>
  <g id="text_36">
   <text style="font-size: 9px; font-family: system-ui, -apple-system, 'Segoe UI', sans-serif; text-anchor: start; fill: var(--ink-secondary, #52514e)" x="34.56" y="49.9824" transform="rotate(-0 34.56 49.9824)">compounded return, roughly 700-name panel (right)</text>
  </g>
  <g id="text_37">
   <text style="font-weight: 700; font-size: 10.5px; font-family: system-ui, -apple-system, 'Segoe UI', sans-serif; text-anchor: start; fill: var(--ink-primary, #0b0b0b)" x="397.44" y="23.868" transform="rotate(-0 397.44 23.868)">Graph specifications against the graph-zeroed control</text>
  </g>
  <g id="text_38">
   <text style="font-size: 9px; font-family: system-ui, -apple-system, 'Segoe UI', sans-serif; text-anchor: start; fill: var(--ink-secondary, #52514e)" x="397.44" y="38.7504" transform="rotate(-0 397.44 38.7504)">mean daily IC difference, 238 test days</text>
  </g>
  <g id="text_39">
   <text style="font-size: 9px; font-family: system-ui, -apple-system, 'Segoe UI', sans-serif; text-anchor: start; fill: var(--ink-secondary, #52514e)" x="397.44" y="49.9824" transform="rotate(-0 397.44 49.9824)">95% block-bootstrap interval; none distinguishable from zero</text>
  </g>
  <g id="text_40">
   <text style="font-size: 8.5px; font-family: system-ui, -apple-system, 'Segoe UI', sans-serif; text-anchor: middle; fill: var(--ink-muted, #898781)" x="103.68" y="268.164" transform="rotate(-0 103.68 268.164)">percentage points over the benchmark</text>
  </g>
  <g id="text_41">
   <text style="font-size: 8.5px; font-family: system-ui, -apple-system, 'Segoe UI', sans-serif; text-anchor: middle; fill: var(--ink-muted, #898781)" x="283.392" y="268.164" transform="rotate(-0 283.392 268.164)">cumulative return, yearly test windows</text>
  </g>
  <g id="text_42">
   <text style="font-size: 8.5px; font-family: system-ui, -apple-system, 'Segoe UI', sans-serif; text-anchor: middle; fill: var(--ink-muted, #898781)" x="559.872" y="268.164" transform="rotate(-0 559.872 268.164)">arm minus control, daily cross-sectional IC</text>
  </g>
 </g>
 <defs>
  <clipPath id="clip-1">
   <rect x="34.56" y="64.584" width="138.24" height="162.864"/>
  </clipPath>
  <clipPath id="clip-2">
   <rect x="207.36" y="64.584" width="152.064" height="162.864"/>
  </clipPath>
  <clipPath id="clip-3">
   <rect x="483.84" y="64.584" width="152.064" height="162.864"/>
  </clipPath>
 </defs>
</svg>
